<?xml version="1.0" encoding="UTF-8"?>
<svg width="582px" height="120px" viewBox="0 0 582 120" version="1.1" xmlns="http://www.w3.org/2000/svg" xmlns:xlink="http://www.w3.org/1999/xlink">
    <!-- Generator: Sketch 47.1 (45422) - http://www.bohemiancoding.com/sketch -->
    <title>Matt &amp; Amy</title>
    <desc>Created with Sketch.</desc>
    <defs></defs>
    <g id="Page-1" stroke="none" stroke-width="1" fill="none" fill-rule="evenodd">
        <path d="M104.8,72.6 C108.16,68.88 139.72,34.68 149.32,34.68 C152.32,34.68 158.44,38.64 158.44,42.48 C158.44,49.56 140.8,67.8 140.8,81.24 C140.8,83.4 141.64,87 144.88,87 C145.24,87 145.96,87.12 145.96,87.72 C145.96,88.08 145.12,88.32 144.4,88.32 C139.36,88.32 133,84.84 133,77.16 C133,63.96 150.88,45.12 150.88,38.52 C150.88,37.8 150.52,37.44 149.8,37.44 C142.36,37.44 117.16,62.4 105.28,76.56 C102.64,79.68 100.48,81.48 99.64,81.48 C97.36,81.48 92.32,76.8 92.32,74.16 C92.32,63.96 129.88,20.28 129.88,14.16 C129.88,13.08 129.4,12.36 128.56,12.36 C113.92,12.36 67.36,76.32 56.2,90.48 C55,92.04 54.4,92.28 53.08,92.28 C50.44,92.28 44.08,88.68 44.08,85.32 C44.08,70.56 80.08,34.08 80.08,15.36 C80.08,5.76 75.4,2.28 69.04,2.28 C42.64,2.28 9.16,34.56 9.16,54.24 C9.16,59.28 10.6,62.76 15.4,62.76 C31.72,62.76 55.48,35.88 58.72,27.24 C58.84,27 59.2,26.52 59.56,26.52 C60.4,26.52 61.72,28.92 61.72,29.76 C61.72,34.92 33.76,65.04 13.84,65.04 C7.24,65.04 0.16,59.76 0.16,53.16 C0.16,30.36 40.24,0 66.76,0 C78.04,0 88.48,7.68 88.48,17.76 C88.48,38.28 52.84,76.32 52.84,88.32 C52.84,88.56 53.08,88.8 53.32,88.8 C57.28,88.8 109.48,9.72 127.84,9.72 C132.76,9.72 137.68,15.36 137.68,18.84 C137.68,27.96 104.92,63.12 104.8,72.6 Z M184.24,74.88 C190.12,74.88 201.52,64.08 201.52,64.08 C201.76,63.84 202,63.6 202.24,63.6 C202.6,63.6 202.72,63.96 202.72,64.08 C202.72,64.32 201.88,65.16 201.52,65.52 C201.52,65.52 189.88,78 182.44,78 C178.36,78 174.76,75.48 174.76,71.64 C174.76,69.36 175,67.44 175,67.44 C169,73.44 161.32,81 158.56,81 C154.96,81 150.88,77.04 150.88,73.32 C150.88,63.72 167.92,47.88 178.24,47.88 C183.16,47.88 187.72,52.2 187.72,54.84 C187.72,56.64 187.12,58.08 186.52,58.08 C186.16,58.08 185.2,57.24 185.2,56.64 C185.2,56.16 185.8,55.68 185.8,54.6 C185.8,54.12 184.96,53.04 183.88,53.04 C172.84,53.04 157.72,69.96 157.72,77.52 C157.72,78.24 158.08,78.6 158.56,78.6 C160.84,78.6 169.24,70.8 175,65.04 C178.6,61.44 181.72,58.56 183.04,58.56 C184.24,58.56 187.84,62.28 187.84,64.2 C187.84,65.64 182.44,69.6 182.44,73.2 C182.44,74.4 183.4,74.88 184.24,74.88 Z M226.6,32.52 C232.36,32.52 233.44,32.64 234.64,32.64 C239.8,24.48 244.84,17.4 245.92,15.84 C246.52,14.88 246.64,14.28 248.08,14.28 C249.88,14.28 253,20.16 253,22.2 C253,23.28 252.04,23.88 250.84,25.32 C249.16,27.24 247.36,29.76 244.6,33.72 C250,34.8 251.92,35.76 251.92,36 C251.92,36.24 251.56,36.84 251.2,36.84 C250.96,36.84 248.68,35.88 243.52,35.16 C235.12,47.64 224.2,66 224.2,75.24 C224.2,76.32 224.8,76.8 225.4,76.8 C231.88,76.8 245.08,64.08 245.08,64.08 C245.32,63.84 245.56,63.6 245.8,63.6 C246.16,63.6 246.28,63.96 246.28,64.08 C246.28,64.32 245.44,65.16 245.08,65.52 C245.08,65.52 231.04,79.56 223.72,79.56 C221.32,79.56 216.64,77.28 216.64,72.48 C216.64,63.96 225.4,47.76 233.56,34.56 C229.84,34.56 227.8,34.68 224.92,35.04 C217.24,46.32 202.12,68.16 202.12,81.48 C202.12,86.76 203.8,88.56 207.52,88.56 C208.24,88.56 208.96,89.64 208.96,90 C208.96,90.48 207.88,90.6 207.4,90.6 C204.28,90.6 198.28,86.76 198.28,78.72 C198.28,66.48 206.68,50.4 213.76,37.44 C209.08,39 207.64,39.84 207.28,39.84 C206.08,39.84 204.4,36.96 204.4,36 C204.4,35.76 204.4,35.52 205,35.28 C207.04,34.44 211,33.72 216.04,33.12 C219.4,26.88 221.92,21.96 221.92,20.04 C221.92,19.56 222.04,18.72 223.36,18.72 C225.04,18.72 229.48,24 229.48,27.48 C229.48,28.32 228.64,29.64 226.6,32.52 Z M315.04,21.36 C315.04,21.12 315.28,20.76 315.76,20.52 C320.68,18.12 325.96,14.4 325.96,11.52 C325.96,11.04 325.48,9.84 324.04,9.84 C310.24,9.84 292.6,20.52 292.6,29.76 C292.6,32.16 292.6,33.6 293.44,34.92 C300.28,32.04 307.36,30.36 311.56,30.36 C313.84,30.36 316.6,32.64 316.6,35.16 C316.6,38.16 312.28,41.64 305.2,41.64 C301.72,41.64 297.88,40.8 294.52,39.12 C284.56,45.48 276.52,55.92 276.52,66.36 C276.52,73.32 280.72,75.84 285.52,75.84 C298.36,75.84 312.76,65.88 318.64,57.12 C313.96,58.56 310.12,60.6 308.56,60.6 C305.44,60.6 300.88,57.96 300.88,54.84 C300.88,49.44 311.44,44.64 316.96,44.64 C319.48,44.64 323.92,47.52 323.92,50.88 C323.92,51.72 323.92,52.32 323.68,53.16 C324.88,52.92 325.72,52.8 326.92,52.8 C331.12,52.8 332.8,54.36 332.8,55.56 C332.8,56.76 329.92,59.04 329.44,59.04 C329.2,59.04 327.88,56.4 323.92,56.4 C323.44,56.4 323.08,56.4 322.6,56.52 C318.28,66.72 303.88,79.32 289.36,79.32 C280.24,79.32 267.16,72 267.16,61.92 C267.16,51.48 278.32,42 290.08,36.36 C287.2,34.08 285.4,30.84 285.4,27.36 C285.4,15.72 303.76,5.28 319.96,5.28 C324.52,5.28 328.12,8.52 328.12,11.88 C328.12,17.16 319.6,25.2 318.04,25.2 C316.96,25.2 315.04,22.8 315.04,21.36 Z M306.64,58.32 C308.92,58.32 314.68,55.44 320.44,53.88 C321.04,52.44 321.28,51.36 321.28,50.16 C321.28,48.84 320.2,47.4 318.88,47.4 C314.8,47.4 305.56,53.28 305.56,57.24 C305.56,57.84 305.56,58.32 306.64,58.32 Z M312.28,32.4 C308.32,32.4 302.44,34.2 296.56,37.68 C298,38.04 299.32,38.28 301.84,38.28 C307,38.28 313.6,35.4 313.6,33.36 C313.6,33 313.12,32.4 312.28,32.4 Z M467.2,39.84 C468.04,39.84 469.6,39.96 471.52,40.08 C479.44,26.52 489.76,13.68 498.4,5.64 C499.36,4.8 500.08,4.44 500.44,4.44 C501.04,4.44 501.28,5.04 501.28,5.28 C501.28,5.64 501.04,6.12 500.08,7.08 C492.52,14.52 483.76,27.72 477.76,40.68 C481.6,41.16 484.96,42.12 484.96,43.44 C484.96,43.8 484.72,44.16 484.24,44.16 C483.76,44.16 482.2,43.2 476.92,42.48 C471.88,53.76 469.72,65.4 469.72,75 C469.72,80.76 471.52,82.2 473.08,82.2 C473.56,82.32 474.04,82.44 474.04,83.04 C474.04,83.52 473.32,83.64 472.72,83.64 C469.48,83.64 459.4,80.4 459.4,71.64 C459.4,63 464.68,51.96 470.32,42 C468.88,41.88 467.2,41.88 465.4,41.88 C462.76,41.88 457,42.24 451.48,42.84 C426.4,73.2 403.6,97.32 380.44,97.32 C368.68,97.32 357.4,90.48 357.4,76.68 C357.4,45.24 402.88,14.28 424.6,14.28 C431.08,14.28 434.56,18.24 434.56,22.56 C434.56,31.92 425.56,41.64 423.88,41.64 C422.56,41.64 419.68,40.92 419.68,40.2 C419.68,39.72 419.92,39.48 420.4,39.36 C423.76,38.64 431.56,29.88 431.56,21.12 C431.56,18.6 430.12,15.96 425.32,15.96 C405.88,15.96 365.8,49.68 365.8,79.68 C365.8,89.88 370.6,95.64 379.96,95.64 C393.88,95.64 416.56,68.52 437.8,45 C423.64,48.6 408.52,57.12 399.64,68.4 C399.16,69 399.04,69.36 398.56,69.36 C397.36,69.36 393.88,66.48 393.88,64.8 C393.88,63.36 396.04,61.2 398.44,59.16 C409.24,50.16 424.24,45.24 440.56,42 L441.04,41.52 C461.32,19.44 484,0 506.92,0 C508.96,0 509.8,1.8 509.8,2.64 C509.8,3 509.68,3.24 509.56,3.24 C509.32,3.24 507.64,3 506.68,3 C489.64,3 470.2,20.4 453.4,40.44 C458.68,40.08 464.32,39.84 467.2,39.84 Z M526.36,56.52 C528.88,56.52 531.64,61.32 531.64,64.92 C531.64,68.52 523.84,72.84 523.84,77.76 C523.84,78.24 524.2,78.6 524.56,78.6 C531.04,78.6 544.72,64.08 544.72,64.08 C544.72,64.08 545.08,63.6 545.44,63.6 C545.8,63.6 546.04,63.96 546.04,64.08 C546.04,64.32 545.08,65.16 544.72,65.52 C544.72,65.52 529.6,81.24 523.84,81.24 C521.2,81.24 516.64,78.24 516.64,74.52 C516.64,69.48 525.4,61.44 525.4,59.52 C525.4,59.4 525.28,59.28 525.16,59.28 C523.84,59.28 515.92,64.2 511.72,68.28 C508.84,71.04 506.68,73.8 505.96,73.8 C504.04,73.8 501.28,70.32 501.28,68.76 C501.28,65.4 512.08,53.52 512.08,50.64 C512.08,50.52 511.96,50.4 511.84,50.4 C508.6,50.4 490.6,68.16 487.12,72.48 C483.64,76.68 482.56,79.2 481.36,79.2 C479.68,79.2 476.68,76.2 476.68,73.2 C476.68,68.76 484.48,60.12 488.92,51.24 C489.28,50.52 489.76,49.68 491.2,49.68 C493.72,49.68 496,53.88 496,56.76 C496,58.2 491.32,64.8 490.72,65.88 C490.72,65.88 508.72,47.76 511.72,47.76 C513.88,47.76 518.92,51.12 518.92,55.08 C518.92,59.16 513.64,63.72 513.64,64.44 C513.64,64.44 524.56,56.52 526.36,56.52 Z M551.92,49.92 C551.92,49.44 552.04,48.72 553.36,48.72 C555.16,48.72 559.84,52.44 559.84,54.72 C559.84,57.6 547.36,71.88 547.36,75.6 C547.36,75.96 547.72,76.2 548.08,76.2 C550.6,76.2 559.48,71.16 565.6,63.84 C571.72,56.4 576.52,47.28 579.64,47.28 C580.48,47.28 581.8,49.44 581.8,50.16 C581.8,50.52 581.32,50.76 580.96,51.12 C577.84,53.28 576.04,55.32 573.4,62.76 C571.24,68.76 568.12,77.4 564.16,85.92 L564.64,85.92 C571.72,85.92 574.24,89.76 574.24,91.08 C574.24,91.44 573.88,91.68 573.52,91.68 C572.8,91.68 572.32,88.32 565.48,88.32 C564.4,88.32 564.04,88.32 562.96,88.44 C555.16,104.52 544.84,120 530.68,120 C525.04,120 521.56,116.16 521.56,112.2 C521.56,99.72 540.52,89.76 555.16,86.88 C560.2,76.68 563.08,69 563.08,69 C558.64,73.2 550.12,78.6 547,78.6 C545.2,78.6 540.4,76.32 540.4,71.28 C540.4,65.88 551.92,53.88 551.92,49.92 Z M523.48,112.2 C523.48,115.08 525.64,116.52 527.92,116.52 C537.4,116.52 546.88,102.84 553.84,89.52 C537.76,92.64 523.48,101.88 523.48,112.2 Z" id="Matt-&amp;-Amy" fill="#FFFFFF"></path>
    </g>
</svg>