<?xml version="1.0" standalone="no"?>
<!DOCTYPE svg PUBLIC "-//W3C//DTD SVG 20010904//EN"
 "http://www.w3.org/TR/2001/REC-SVG-20010904/DTD/svg10.dtd">
<svg version="1.0" xmlns="http://www.w3.org/2000/svg"
 width="260.000000pt" height="260.000000pt" viewBox="0 0 260.000000 260.000000"
 preserveAspectRatio="xMidYMid meet">
<metadata>
Created by potrace 1.11, written by Peter Selinger 2001-2013
</metadata>
<g transform="translate(0.000000,260.000000) scale(0.100000,-0.100000)"
fill="#000000" stroke="none">
<path d="M823 2575 c-13 -5 -23 -18 -23 -27 0 -10 -4 -18 -8 -18 -11 0 -12
-39 -1 -45 5 -4 9 0 9 7 0 9 3 9 10 -2 5 -8 10 -10 10 -4 0 6 13 14 29 17 33
7 45 37 25 64 -7 10 -14 14 -14 8 0 -6 -3 -6 -8 0 -5 7 -14 7 -29 0z"/>
<path d="M435 2440 c-4 -6 -10 -8 -15 -5 -5 3 -11 1 -15 -5 -3 -5 -15 -10 -26
-10 -11 0 -17 -4 -14 -10 3 -5 1 -10 -5 -10 -6 0 -24 -13 -40 -30 -16 -16 -34
-30 -40 -30 -5 0 -10 -4 -10 -9 0 -5 -22 -32 -49 -60 -27 -28 -47 -51 -45 -51
3 0 -2 -7 -10 -16 -9 -8 -14 -20 -10 -25 3 -5 0 -8 -7 -7 -7 2 -13 -1 -14 -7
0 -5 -4 -16 -8 -22 -5 -8 -4 -13 3 -13 6 0 9 -4 6 -8 -3 -5 6 -20 19 -34 13
-14 21 -29 17 -32 -3 -4 2 -4 12 0 14 5 17 4 12 -5 -5 -8 -1 -14 13 -18 11 -3
18 -9 15 -14 -3 -5 0 -9 6 -9 6 0 20 -9 32 -20 18 -17 23 -17 40 -6 26 18 74
5 106 -29 18 -20 20 -25 7 -25 -9 0 -13 -4 -10 -10 3 -5 2 -10 -4 -10 -5 0
-12 6 -14 13 -4 10 -6 10 -6 0 -1 -7 -7 -13 -15 -13 -8 0 -17 -7 -20 -16 -3
-8 -10 -13 -15 -9 -20 12 -5 -51 17 -73 23 -24 27 -33 15 -31 -29 5 -73 -3
-68 -11 3 -5 -1 -10 -9 -10 -19 0 -59 -53 -61 -79 -1 -11 2 -18 7 -15 4 3 8 0
8 -5 0 -6 7 -11 15 -11 8 0 15 -4 15 -10 0 -5 5 -10 11 -10 5 0 7 5 3 11 -4 7
1 7 16 -1 15 -8 20 -8 16 -1 -4 7 0 11 12 11 18 0 48 23 74 57 18 24 59 47 67
36 3 -4 21 -9 39 -10 18 -1 40 -9 48 -18 9 -8 20 -13 25 -10 5 4 9 -1 9 -10 0
-11 5 -15 15 -11 8 3 15 2 15 -3 0 -16 91 -101 108 -101 10 0 21 -3 25 -6 8
-9 -4 -35 -13 -29 -8 5 -26 -33 -22 -47 1 -5 -3 -8 -10 -8 -6 0 -3 -7 8 -16
10 -8 13 -12 5 -8 -9 5 -12 3 -7 -4 4 -7 14 -12 22 -12 8 0 14 -4 14 -10 0 -5
9 -10 19 -10 11 0 23 -5 27 -12 5 -7 3 -8 -6 -3 -7 5 -5 -4 6 -18 10 -15 27
-27 36 -27 9 0 19 -6 21 -12 4 -10 6 -10 6 0 2 30 71 -6 71 -37 0 -8 3 -12 6
-8 3 3 16 -5 28 -17 11 -13 28 -26 36 -29 8 -3 10 -6 3 -6 -7 -1 8 -20 32 -43
25 -24 45 -49 45 -56 0 -7 7 -15 15 -18 8 -4 12 -10 9 -15 -3 -5 6 -30 20 -54
14 -25 21 -43 16 -40 -4 3 1 -13 11 -35 11 -22 17 -46 13 -52 -4 -6 -3 -8 3
-5 6 4 13 -10 17 -35 4 -23 12 -46 19 -50 9 -6 8 -8 -3 -8 -10 0 -11 -3 -3 -8
6 -4 13 -16 15 -27 1 -11 6 -22 10 -25 4 -3 9 -15 11 -25 2 -11 8 -30 15 -41
6 -12 8 -24 5 -28 -3 -3 -1 -6 6 -6 7 0 10 -4 6 -9 -3 -5 -1 -12 5 -16 6 -4 8
-11 5 -16 -4 -5 -1 -9 4 -9 6 0 11 -7 11 -15 0 -8 5 -15 10 -15 6 0 10 -6 10
-14 0 -19 32 -79 48 -89 6 -4 12 -15 12 -23 0 -8 5 -12 10 -9 6 3 10 1 10 -5
0 -14 167 -179 174 -172 4 3 6 -2 6 -12 0 -9 3 -15 8 -13 9 5 42 -30 34 -37
-3 -3 1 -6 10 -6 8 0 31 -18 51 -41 21 -22 37 -35 37 -28 0 7 6 4 14 -6 8 -11
12 -23 10 -26 -2 -4 3 -9 11 -13 8 -3 40 -24 70 -47 49 -37 63 -42 116 -45 45
-3 58 0 52 9 -4 8 -1 7 10 -2 12 -9 17 -10 17 -2 0 7 4 10 9 7 5 -4 12 0 14 6
4 10 6 10 6 1 1 -9 12 -6 36 7 20 11 42 20 50 20 8 0 15 4 15 10 0 5 12 13 26
16 15 4 35 14 44 23 32 30 60 51 60 45 0 -4 15 10 34 30 19 20 37 36 40 36 3
0 15 9 26 20 11 11 18 20 15 20 -2 0 9 14 25 30 17 17 30 35 30 41 0 6 4 8 9
5 5 -3 12 2 15 12 12 32 33 62 39 55 4 -3 7 3 7 15 0 12 5 22 11 22 6 0 9 6 6
14 -3 8 1 17 10 20 9 4 13 9 10 13 -3 3 0 18 8 34 8 15 16 37 18 48 2 11 6 24
10 27 12 12 8 26 -5 18 -9 -5 -9 -2 1 9 7 9 9 17 4 17 -6 0 -8 12 -5 26 4 20
2 25 -8 19 -10 -6 -12 -3 -8 12 3 13 -1 24 -13 32 -11 6 -19 19 -19 28 0 9 -3
14 -6 10 -7 -6 -114 103 -114 116 0 5 -4 6 -9 2 -5 -3 -12 4 -16 15 -3 11 -10
20 -15 20 -12 0 -65 50 -54 51 5 0 1 4 -9 8 -10 4 -17 10 -15 13 4 8 -64 68
-77 68 -5 0 -3 5 5 10 13 9 13 10 0 10 -8 0 -26 10 -40 21 -14 11 -18 18 -10
14 8 -3 7 0 -4 7 -10 7 -29 23 -42 36 -13 12 -28 22 -34 22 -5 0 -10 5 -10 11
0 5 -4 8 -9 5 -5 -3 -12 1 -15 9 -3 8 -9 15 -13 14 -13 -3 -73 25 -73 33 0 4
-9 8 -20 8 -11 0 -20 5 -20 10 0 6 -3 9 -7 8 -8 -1 -22 4 -83 30 -19 8 -39 14
-44 13 -4 -1 -13 2 -20 7 -6 4 -24 9 -41 11 -16 2 -31 7 -33 12 -2 5 -14 9
-27 9 -13 0 -27 5 -30 10 -4 6 -10 8 -15 5 -5 -3 -21 0 -37 7 -15 6 -30 12
-33 12 -3 1 -9 4 -15 7 -13 8 -68 23 -77 21 -5 -1 -8 3 -8 8 0 6 -7 10 -16 10
-21 0 -96 53 -157 113 -27 26 -54 47 -59 47 -5 0 -6 5 -3 10 3 6 -2 10 -11 10
-10 0 -15 3 -11 6 3 4 -4 15 -16 25 -12 10 -17 18 -10 19 14 0 8 43 -7 48 -6
2 -8 8 -4 13 3 5 -4 9 -15 9 -12 0 -21 5 -21 11 0 5 -5 7 -12 3 -6 -4 -8 -3
-5 3 4 6 -3 22 -14 37 -24 30 -61 34 -86 9 -21 -21 -49 -23 -45 -4 1 7 -2 19
-8 26 -7 9 -8 14 0 17 5 1 -4 19 -20 38 -16 19 -30 40 -30 45 0 6 -11 22 -25
37 -16 18 -20 28 -12 31 9 4 9 6 -1 6 -7 1 -10 6 -7 11 3 6 1 10 -4 10 -6 0
-11 9 -11 20 0 11 -4 20 -8 20 -4 0 -9 12 -10 27 -1 15 -8 30 -15 35 -6 4 -9
8 -5 8 4 0 3 11 -2 25 -7 18 -6 25 3 25 7 0 8 3 2 8 -15 11 -18 30 -19 129 0
50 -3 90 -5 87 -2 -2 -10 1 -18 7 -10 9 -18 8 -32 -5 -10 -9 -18 -22 -19 -29
-7 -55 -8 -83 -3 -92 10 -18 7 -41 -6 -53 -7 -7 -13 -8 -13 -3 0 5 -9 9 -20 8
-14 -1 -22 -11 -26 -32 -3 -17 -5 -35 -4 -40 6 -30 0 -38 -18 -22 -10 10 -24
17 -30 17 -7 0 -12 5 -12 10 0 6 -7 10 -16 10 -8 0 -12 5 -9 10 3 6 1 10 -5
10 -6 0 -2 13 9 29 25 35 27 67 5 75 -9 4 -14 9 -11 12 3 3 -17 26 -43 52 -68
66 -78 73 -85 62z m321 -444 c8 -8 14 -22 14 -30 0 -9 4 -16 8 -16 5 0 8 -10
7 -22 -2 -13 -8 -22 -14 -20 -37 8 -77 82 -45 82 8 0 12 5 9 10 -9 15 4 12 21
-4z m-155 -188 c11 -11 19 -22 19 -24 0 -5 -33 8 -46 17 -6 5 -14 6 -17 2 -4
-3 -7 -2 -7 4 0 29 27 30 51 1z"/>
<path d="M60 1818 c0 -4 -3 -7 -7 -7 -20 3 -34 -2 -29 -10 4 -5 0 -11 -6 -14
-10 -3 -9 -9 3 -21 18 -20 74 -12 62 8 -4 6 2 4 13 -4 10 -8 16 -11 12 -6 -4
5 0 16 9 25 15 15 15 16 0 19 -10 2 -15 7 -13 11 3 4 -6 7 -20 7 -13 0 -24 -4
-24 -8z"/>
<path d="M511 1411 c-9 -13 -10 -13 -5 -1 3 8 -6 2 -20 -15 -50 -57 -53 -99
-8 -116 19 -7 29 -6 45 8 12 10 17 12 12 4 -5 -10 -4 -12 3 -7 18 11 16 143
-2 143 -7 0 -19 -7 -25 -16z"/>
</g>
</svg>
