<?xml version="1.0" encoding="utf-8"?>
<!-- Generator: Adobe Illustrator 22.0.1, SVG Export Plug-In . SVG Version: 6.00 Build 0)  -->
<svg version="1.1" id="Layer_1" xmlns="http://www.w3.org/2000/svg" xmlns:xlink="http://www.w3.org/1999/xlink" x="0px" y="0px"
	 viewBox="0 0 264 88" style="enable-background:new 0 0 264 88;" xml:space="preserve">
<style type="text/css">
	.st0{fill:#F7C7A9;}
</style>
<title>default-skin 2</title>
<g>
	<g>
		<path id="Shape" class="st0" d="M67,59.5v3.8c-6.3,0.8-9.2,5.8-10,9.7c2.2-2.8,5.6-5.1,10-5.1v3.6l6-5.9L67,59.5z"/>
		<g>
			<path id="Shape_1_" class="st0" d="M13,29v-5h2v3h3v2H13z M13,15h5v2h-3v3h-2V15z M31,15v5h-2v-3h-3v-2H31z M31,29h-5v-2h3v-3h2
				V29z"/>
		</g>
		<g>
			<path class="st0" d="M62,24v5h-2v-3h-3v-2H62z M62,20h-5v-2h3v-3h2V20z M70,20v-5h2v3h3v2H70z M70,24h5v2h-3v3h-2V24z"/>
		</g>
		<path class="st0" d="M20.6,66l-5.7-5.7l1.4-1.4l5.7,5.7l5.7-5.7l1.4,1.4L23.4,66l5.7,5.7l-1.4,1.4L22,67.4l-5.7,5.7l-1.4-1.4
			L20.6,66z"/>
		<path class="st0" d="M111.8,65l-1.8-1.5l3-3.5h-10v-2h10l-3-3.5l1.8-1.5l5.2,6L111.8,65z"/>
		<path class="st0" d="M152.2,65l1.8-1.5l-3-3.5h10v-2h-10l3-3.5l-1.8-1.5l-5.2,6L152.2,65z"/>
		<g>
			<path class="st0" d="M161,28.5l-3.4-3.4c0.7-1,1.2-2.3,1.2-3.7c0-3.4-2.8-6.3-6.3-6.3s-6.3,2.8-6.3,6.3s2.8,6.3,6.3,6.3
				c1.4,0,2.6-0.4,3.6-1.2l3.4,3.4L161,28.5z M152.5,26.3c-2.6,0-4.8-2.1-4.8-4.8s2.1-4.8,4.8-4.8s4.8,2.1,4.8,4.8
				S155.1,26.3,152.5,26.3z"/>
			<rect x="150" y="21" class="st0" width="5" height="1"/>
		</g>
		<g>
			<path class="st0" d="M117,28.5l-3.4-3.4c0.7-1,1.2-2.3,1.2-3.6c0-3.4-2.8-6.3-6.3-6.3s-6.3,2.8-6.3,6.3s2.8,6.3,6.3,6.3
				c1.4,0,2.6-0.5,3.7-1.2l3.4,3.4L117,28.5z M108.5,26.3c-2.6,0-4.8-2.1-4.8-4.8s2.1-4.8,4.8-4.8s4.8,2.1,4.8,4.8
				S111.1,26.3,108.5,26.3z"/>
			<polygon class="st0" points="111,21 109,21 109,19 108,19 108,21 106,21 106,22 108,22 108,24 109,24 109,22 111,22 			"/>
		</g>
	</g>
</g>
</svg>
